<svg xmlns="http://www.w3.org/2000/svg" version="1.1" xmlns:xlink="http://www.w3.org/1999/xlink" width="512" height="512" x="0" y="0" viewBox="0 0 512 512" style="enable-background:new 0 0 512 512" xml:space="preserve" class=""><g><path d="M496 307.418h-24.483c-1.45-13.53-12.933-24.104-26.842-24.104H229.17c-13.909 0-25.393 10.573-26.843 24.104h-20.325a26.834 26.834 0 0 0 3.345-13v-13.865c0-14.888-12.112-27-27-27H97.326c-14.888 0-27 12.112-27 27v13.865c0 4.71 1.215 9.141 3.345 13h-9.346V156.397a7 7 0 0 0-7-7H16a7 7 0 0 0-7 7V496a7 7 0 0 0 7 7h41.325a7 7 0 0 0 7-7v-45.649h383.35V496a7 7 0 0 0 7 7H496a7 7 0 0 0 7-7V314.418a7 7 0 0 0-7-7zM50.325 489H23V163.397h27.325zM489 371.885h-17.325v-50.466H489zm-31.325-61.57v83.066c0 7.168-5.831 13-12.999 13H262.757V297.315h181.919c7.168 0 12.999 5.831 12.999 13zm-241.505 0c0-7.168 5.832-13 13-13h19.587v109.066H229.17c-7.168 0-13-5.832-13-13zM84.326 294.418v-13.865c0-7.168 5.832-13 13-13h61.021c7.168 0 13 5.832 13 13v13.865c0 7.168-5.832 13-13 13H97.326c-7.168 0-13-5.831-13-13zm117.844 27v50.466H64.325v-50.466zM489 489h-27.325v-38.649H489zM64.325 436.351v-50.466H202.17v7.496c0 14.888 12.112 27 27 27h215.506c14.888 0 26.999-12.112 26.999-27v-7.496H489v50.466zm383.122-269.506v-21.818a7 7 0 1 1 14 0v21.818a7 7 0 1 1-14 0zm-41.551-41.553a7 7 0 0 1 7-7h21.818a7 7 0 1 1 0 14h-21.818a7 7 0 0 1-7-7zm61.286 0a7 7 0 0 1 7-7H496a7 7 0 1 1 0 14h-21.818a7 7 0 0 1-7-7zm-19.735-19.733V83.74a7 7 0 1 1 14 0v21.819a7 7 0 1 1-14 0zm-330.948-6.454V77.287a7 7 0 1 1 14 0v21.818a7 7 0 1 1-14 0zm0-61.287V16a7 7 0 1 1 14 0v21.818a7 7 0 1 1-14 0zm19.734 19.734a7 7 0 0 1 7-7h21.818a7 7 0 1 1 0 14h-21.818a7 7 0 0 1-7-7zm-61.286 0a7 7 0 0 1 7-7h21.818a7 7 0 1 1 0 14H81.947a7 7 0 0 1-7-7zm202.982 151.41v-21.818a7 7 0 1 1 14 0v21.818a7 7 0 1 1-14 0zm-41.553-41.553a7 7 0 0 1 7-7h21.818a7 7 0 1 1 0 14h-21.818a7 7 0 0 1-7-7zm41.553-19.733v-21.819a7 7 0 1 1 14 0v21.819a7 7 0 1 1-14 0zm19.733 19.733a7 7 0 0 1 7-7h21.818a7 7 0 1 1 0 14h-21.818a7 7 0 0 1-7-7z" fill="#000000" opacity="1" data-original="#000000"></path></g></svg>