<svg xmlns="http://www.w3.org/2000/svg" version="1.1" xmlns:xlink="http://www.w3.org/1999/xlink" width="512" height="512" x="0" y="0" viewBox="0 0 480 480" style="enable-background:new 0 0 512 512" xml:space="preserve" class=""><g><path d="M440 264V48h24V24c0-13.602-10.398-24-24-24H40C26.398 0 16 10.398 16 24v24h24v216h16V48h368v216zM32 24c0-4.8 3.2-8 8-8h400c4.8 0 8 3.2 8 8v8H32zM408 336v-32c0-13.602-10.398-24-24-24H96c-13.602 0-24 10.398-24 24v32h144v96h-16c-13.602 0-24 10.398-24 24v24h128v-24c0-13.602-10.398-24-24-24h-16v-96zM88 304c0-4.8 3.2-8 8-8h288c4.8 0 8 3.2 8 8v16H88zm200 152v8h-96v-8c0-4.8 3.2-8 8-8h80c4.8 0 8 3.2 8 8zm-40-24h-16v-96h16zm0 0" fill="#000000" opacity="1" data-original="#000000"></path><path d="M456 280c-13.602 0-24 10.398-24 24v48c0 4.8-3.2 8-8 8h-48c-13.602 0-24 10.398-24 24s10.398 24 24 24h48v40h-8c-13.602 0-24 10.398-24 24v8h16v-8c0-4.8 3.2-8 8-8h8v16h16v-16h8c4.8 0 8 3.2 8 8v8h16v-8c0-13.602-10.398-24-24-24h-8v-40c22.398 0 40-17.602 40-40v-64c0-13.602-10.398-24-24-24zm8 88c0 13.602-10.398 24-24 24h-64c-4.8 0-8-3.2-8-8s3.2-8 8-8h48c13.602 0 24-10.398 24-24v-48c0-4.8 3.2-8 8-8s8 3.2 8 8zM40 408v40h-8c-13.602 0-24 10.398-24 24v8h16v-8c0-4.8 3.2-8 8-8h8v16h16v-16h8c4.8 0 8 3.2 8 8v8h16v-8c0-13.602-10.398-24-24-24h-8v-40h48c13.602 0 24-10.398 24-24s-10.398-24-24-24H56c-4.8 0-8-3.2-8-8v-48c0-13.602-10.398-24-24-24S0 290.398 0 304v64c0 22.398 17.602 40 40 40zM16 304c0-4.8 3.2-8 8-8s8 3.2 8 8v48c0 13.602 10.398 24 24 24h48c4.8 0 8 3.2 8 8s-3.2 8-8 8H40c-13.602 0-24-10.398-24-24zM248 88h152v16H248zM248 128h152v16H248zM248 168h152v16H248zM248 208h152v16H248zM152 80c-40 0-72 32-72 72s32 72 72 72 72-32 72-72v-8h-64V80zm55.2 80c-4.802 30.398-32.802 52-63.2 47.2S92 174.397 96.8 144c3.2-24.8 23.2-44 47.2-47.2V160zm0 0" fill="#000000" opacity="1" data-original="#000000"></path><path d="M232 120c0-26.398-21.602-48-48-48h-8v56h56zm-40-8V88.8c11.2 3.2 20 12 23.2 23.2zm0 0" fill="#000000" opacity="1" data-original="#000000"></path></g></svg>