<svg xmlns="http://www.w3.org/2000/svg" version="1.1" xmlns:xlink="http://www.w3.org/1999/xlink" width="512" height="512" x="0" y="0" viewBox="0 0 512.001 512.001" style="enable-background:new 0 0 512 512" xml:space="preserve" class=""><g><path d="M503.324 441.029H394.101v-51.792c23.851-3.208 44.99-18.104 57.282-40.687 16.331-3.733 31.167-13.188 42.142-26.947 11.914-14.937 18.476-34.027 18.476-53.754 0-30.009-15.366-57.784-39.543-72.211-2.519-50.043-41.096-89.945-88.079-89.945-14.789 0-29.422 4.025-42.316 11.64a8.434 8.434 0 0 0-2.975 11.552 8.435 8.435 0 0 0 11.553 2.975c10.298-6.082 21.964-9.296 33.738-9.296 39.263 0 71.265 35.053 71.339 78.139a8.437 8.437 0 0 0 4.626 7.512c21.132 10.695 34.785 34.102 34.785 59.633 0 32.222-21.821 60.12-50.759 64.893a8.436 8.436 0 0 0-6.225 4.66c-9.05 18.768-25.402 31.455-44.044 34.758v-74.645l41.516-38.177a8.435 8.435 0 0 0 .499-11.919 8.434 8.434 0 0 0-11.919-.499l-30.096 27.675v-56.312a8.436 8.436 0 0 0-16.872 0v102.1l-30.096-27.675a8.434 8.434 0 0 0-11.919.499 8.435 8.435 0 0 0 .499 11.919l41.517 38.177v29.252c-19.892-2.563-37.435-15.725-46.848-35.641a8.431 8.431 0 0 0-5.873-4.646c-27.992-5.947-48.308-33.038-48.308-64.419 0-24.744 12.478-47.139 32.564-58.442a8.436 8.436 0 0 0 4.298-7.455c-.002-.234-.01-.466-.018-.697-.005-.134-.01-.267-.01-.4 0-17.573 5.186-34.177 14.997-48.015a8.435 8.435 0 0 0-2.002-11.76 8.435 8.435 0 0 0-11.76 2.002c-11.177 15.764-17.381 34.439-18.045 54.212-22.878 14.919-36.894 41.492-36.894 70.556 0 37.804 24 70.734 57.638 79.942 12.661 23.845 35.055 39.276 60.263 41.746v51.492h-5.343c-1.243-22.077-16.334-41.283-37.349-47.768-6.594-14.029-19.402-24.201-34.463-27.499-4.938-22.445-25.143-39.182-48.688-39.182-18.156 0-34.619 9.758-43.395 25.29a51.51 51.51 0 0 0-41.748 24.194c-5.563-15.304-19.813-26.447-36.497-27.645V326.24c22.773-3.166 42.938-17.41 54.72-38.958 15.651-3.616 29.865-12.696 40.388-25.888 11.458-14.363 17.768-32.72 17.768-51.688 0-28.788-14.709-55.441-37.868-69.344-2.513-48.011-39.564-86.261-84.678-86.261-17.305 0-33.95 5.581-48.137 16.142a8.438 8.438 0 0 0-1.73 11.804 8.438 8.438 0 0 0 11.804 1.73c11.252-8.378 24.414-12.805 38.063-12.805 37.391 0 67.869 33.398 67.94 74.45a8.437 8.437 0 0 0 4.626 7.512c20.112 10.179 33.106 32.464 33.106 56.772 0 30.675-20.762 57.232-48.295 61.773a8.437 8.437 0 0 0-6.225 4.66c-8.545 17.72-23.924 29.748-41.484 33.008v-70.88l39.632-36.443a8.436 8.436 0 0 0-11.42-12.418l-28.212 25.942v-53.094a8.436 8.436 0 0 0-16.872 0v96.931l-28.211-25.942a8.434 8.434 0 0 0-11.919.499 8.435 8.435 0 0 0 .499 11.919l39.63 36.443v27.438c-18.756-2.566-35.272-15.047-44.167-33.865a8.431 8.431 0 0 0-5.873-4.646c-26.633-5.661-45.964-31.45-45.964-61.325 0-23.561 11.875-44.881 30.992-55.639a8.433 8.433 0 0 0 4.298-7.448 25.834 25.834 0 0 0-.017-.683c-.003-.123-.009-.245-.009-.37 0-10.434 1.923-20.524 5.715-29.989a77.696 77.696 0 0 1 3.864-8.212 8.434 8.434 0 0 0-3.374-11.442 8.432 8.432 0 0 0-11.442 3.373 94.541 94.541 0 0 0-4.707 10.006c-4.156 10.371-6.459 21.339-6.862 32.655C13.417 156.324 0 181.824 0 209.706c0 36.297 23.018 67.926 55.296 76.84 12.138 22.755 33.507 37.519 57.579 39.99v24.129a41.879 41.879 0 0 0-22.216 18.171c-20.486 1.165-37.039 16.295-40.247 36.249-15.109 6.71-26.342 20.018-30.478 35.942H8.436a8.436 8.436 0 0 0 0 16.872H503.324a8.436 8.436 0 0 0 0-16.87zm-465.697 0c4.024-10.255 12.489-18.424 23.273-21.917a8.435 8.435 0 0 0 5.833-7.776c.425-14.411 12.054-25.7 26.475-25.7.578 0 1.21.027 1.987.084a8.441 8.441 0 0 0 8.398-5.145 25.083 25.083 0 0 1 23.171-15.399c13.026 0 24.022 10.162 25.034 23.135a8.439 8.439 0 0 0 7.755 7.755c2.3.179 4.524.684 6.63 1.454l.026.011c.391.144.776.299 1.158.461l.247.106c.357.155.71.318 1.057.489.118.059.234.12.351.18.481.246.952.508 1.414.783.252.151.506.297.752.457.187.12.367.249.549.372a22.47 22.47 0 0 1 1.275.926c.326.254.648.516.961.787.087.074.174.145.26.22a25.213 25.213 0 0 1 3.432 3.723c.055.073.112.145.166.219a25.021 25.021 0 0 1 1.788 2.813c.071.13.138.263.208.395.19.363.371.733.544 1.108a25.409 25.409 0 0 1 .802 1.925l.02.052a8.437 8.437 0 0 0 6.155 5.375c.754.162 1.493.36 2.22.583.237.073.467.162.702.241.484.162.966.327 1.437.515.272.109.537.232.804.349.421.184.84.371 1.25.575.276.137.544.285.814.431a26.292 26.292 0 0 1 3.013 1.888c.251.181.499.362.743.551.349.27.687.551 1.022.836.227.193.457.385.678.585.343.312.671.637.998.964.193.193.393.382.58.582.368.391.716.799 1.061 1.209.128.153.264.297.389.452.46.574.899 1.164 1.313 1.773.087.127.162.263.246.391.319.486.63.977.919 1.482.13.229.247.467.371.7.224.418.444.837.647 1.266.126.267.238.54.355.81.178.411.35.822.508 1.242.108.288.207.579.306.871a28.282 28.282 0 0 1 .638 2.164c.107.43.201.863.288 1.299.061.304.12.608.171.916.024.143.036.288.057.432H37.627zm188.261.001v-.001c-.007-.08-.024-.159-.03-.238a43.656 43.656 0 0 0-.387-2.997l-.033-.174a44.042 44.042 0 0 0-.617-2.996c-.01-.043-.018-.086-.029-.127a44.882 44.882 0 0 0-.824-2.898c-.033-.102-.063-.207-.097-.309-.3-.918-.634-1.822-.993-2.716-.052-.129-.102-.259-.155-.387a44.024 44.024 0 0 0-1.36-2.982 45.539 45.539 0 0 0-1.34-2.482l-.217-.367a44.319 44.319 0 0 0-1.532-2.408c-.065-.096-.133-.189-.199-.283a45.52 45.52 0 0 0-1.751-2.364c-.038-.048-.079-.094-.117-.143a44.89 44.89 0 0 0-1.991-2.323l-.022-.025a45.562 45.562 0 0 0-2.13-2.155c-.064-.061-.126-.124-.19-.184a45.174 45.174 0 0 0-2.183-1.913l-.3-.249a44.743 44.743 0 0 0-2.267-1.715l-.36-.254a44.08 44.08 0 0 0-2.759-1.768 44.842 44.842 0 0 0-2.51-1.379c-.117-.06-.236-.115-.354-.173a44.367 44.367 0 0 0-2.687-1.226c-.081-.034-.163-.063-.244-.096a43.966 43.966 0 0 0-2.918-1.075l-.011-.005c-.043-.087-.092-.168-.135-.254a41.646 41.646 0 0 0-1.074-2.014c-.192-.337-.397-.666-.597-.998a38.232 38.232 0 0 0-2.184-3.249 40.587 40.587 0 0 0-.891-1.172c-.18-.225-.369-.441-.553-.661a41.842 41.842 0 0 0-2.231-2.476c-.134-.137-.262-.279-.397-.414-.386-.384-.785-.752-1.185-1.121a41.84 41.84 0 0 0-.697-.633c-.382-.336-.77-.666-1.166-.99-.288-.236-.581-.463-.875-.692-.367-.283-.731-.569-1.108-.841-.53-.384-1.072-.75-1.62-1.109-.146-.096-.285-.202-.433-.296a34.652 34.652 0 0 1 29.836-16.989c.761 0 1.587.035 2.599.109a8.434 8.434 0 0 0 8.397-5.145 32.929 32.929 0 0 1 30.422-20.218c17.103 0 31.54 13.344 32.868 30.378a8.436 8.436 0 0 0 7.755 7.754c12.867 1.003 24.021 9.498 28.417 21.643a8.437 8.437 0 0 0 6.155 5.375c15.564 3.354 27.11 16.738 28.407 32.428H225.888z" fill="#000000" opacity="1" data-original="#000000" class=""></path></g></svg>