<svg xmlns="http://www.w3.org/2000/svg" version="1.1" xmlns:xlink="http://www.w3.org/1999/xlink" width="512" height="512" x="0" y="0" viewBox="0 0 64 64" style="enable-background:new 0 0 512 512" xml:space="preserve"><g><g data-name="beach chair"><path d="M59 58h-3a4 4 0 0 0 2-7.47L55.29 49a1 1 0 0 0-1 1.74l2.64 1.51a2 2 0 0 1 .74 2.75 2 2 0 0 1-2.74.73C43.6 49.19 45.4 50 44 50c-24.57 0-24.08.34-26.79-1.21A9.13 9.13 0 0 1 14.93 47a1 1 0 0 0-1.5 1.33A11.07 11.07 0 0 0 20 51.84V58H5a1 1 0 0 0 0 2h54a1 1 0 0 0 0-2zm-3.11 0H45v-5.69C54.58 57.84 54.48 58 55.89 58zm-24.57-6 1.61 6H26v-6zM35 57.82 33.39 52H39v6c-4.63 0-4 .08-4-.18zM22 58v-6h2v6zm19 0v-6h2v6z" fill="#000000" opacity="1" data-original="#000000"></path><path d="M4.94 26.13c.56.42-.58.55 18.24-4.49l6 22.36h-6.94a4 4 0 0 1-3.46-2l-6.32-10.93a4 4 0 0 0-6.93 4l5.6 9.7a1 1 0 0 0 1.74-1c-6.12-10.6-6.09-10.13-5.8-11.21a2 2 0 0 1 3.66-.49L17 43a6 6 0 0 0 5.2 3c27.26 0 22.18-1 28.6 2.75a1 1 0 0 0 1-1.74c-6.57-3.78-3.12-3-20.59-3l-6.1-22.89 9.27-2.48a1 1 0 0 0-.52-1.94l-2.59.7c-1.79-4.63-4.32-9-7-11.12a18.41 18.41 0 0 1 16.5 8.58l-3 .81a1 1 0 0 0 .26 2 41 41 0 0 0 4.54-1.18 1 1 0 0 0 .56-1.49 20.52 20.52 0 0 0-31.8-5.49A1 1 0 0 0 12.67 11a18.19 18.19 0 0 1 3.86-2.67c-1.27 3.24-1.29 8.24-.53 13.15L6.55 24a18.44 18.44 0 0 1 1.53-6.65 1 1 0 0 0-.85-1.53h-.2a1 1 0 0 0-.72.57 20.52 20.52 0 0 0-1.77 8.93 1 1 0 0 0 .4.81zm24.39-8.21L17.94 21c-1.24-8.12.16-13.5 2.33-14.08a1.61 1.61 0 0 1 .44-.06c2.23-.03 5.83 3.9 8.62 11.06z" fill="#000000" opacity="1" data-original="#000000"></path><path d="M10.05 13.93a1.77 1.77 0 0 1 .12-.17c.77-1-.8-2.51-1.82-.89a1 1 0 0 0 1.7 1.06z" fill="#000000" opacity="1" data-original="#000000"></path></g></g></svg>