<svg xmlns="http://www.w3.org/2000/svg" version="1.1" xmlns:xlink="http://www.w3.org/1999/xlink" width="512" height="512" x="0" y="0" viewBox="0 0 511.999 511.999" style="enable-background:new 0 0 512 512" xml:space="preserve" class=""><g><path d="M494.716 317.785c-2.177-17.838-9.251-31.818-25.188-41.554-11.546-7.07-20.895-8.17-65.112-19.179v-2.311h44.136c10.702 0 19.425-8.64 19.557-19.312 5.571-94.47 6.411-105.293 6.031-109.758 0-4.143-3.357-7.5-7.5-7.5a7.499 7.499 0 0 0-7.5 7.5v7.115c-6.291 106.693-6.029 101.963-6.029 102.395 0 2.471-2.088 4.559-4.559 4.559h-44.136v-1.941c2.419-1.617 20.344-9.52 33.359-30.606 14.415-23.261 12.407-42.922 12.433-61.961 0-7.629-5.951-13.833-13.549-14.124h-.001c-55.62-2.126-84.16-33.653-91.584-43.266a12.448 12.448 0 0 0-9.455-4.846 12.554 12.554 0 0 0-9.783 4.193c-11.672 13.139-24.874 17.296-31.705 18.604-6.189 1.186-10.682 6.628-10.682 12.941.027 47.141-.058 44.544.068 47.86.201 29.277 19.905 58.703 45.431 71.058v2.085h-44.771c-2.471 0-4.558-2.088-4.558-4.559 0-.437.251 4.107-6.042-102.616a9.27 9.27 0 0 0-.036-.412c-.089-.779-8.374-78.043 35.006-87.576a7.5 7.5 0 0 0 5.061-3.897c.181-.35 18.683-34.897 78.368-23.274 23.756 4.53 59.303 32.819 65.979 74.453.655 4.089 4.497 6.866 8.593 6.218a7.5 7.5 0 0 0 6.218-8.593c-2.888-19.721-12.705-40.539-27.549-56.337l-.533-.57C429.79 16.8 407.624 5.168 394.838 2.679c-20.119-3.916-49.175-5.394-73.366 9.807-10.418 6.544-16.492 14.095-19.303 18.234-22.131 6.284-36.629 26.018-42.021 57.306-3.854 22.358-1.804 43.108-1.532 45.616 7.025 108.488 4.616 104.428 8.683 111.378-21.313-3.427-43.006 2.665-59.445 18.205l-6.556-1.633-18.241-8.73v-15.223c37.148-18.43 43.092-55.299 43.451-55.977a84.89 84.89 0 0 0 2.015-18.294v-.073c13.544-2.951 23.612-13.697 23.612-26.47 0-5.291-1.733-10.231-4.72-14.418.123-19.725.681-31.328-3.543-46.884-1.081-2.753-4.621-20.176-20.32-38.903l-.074-.09C194.464 2.022 144.424-11.15 99.539 10.722 65.482 27.704 42.865 62.73 42.865 102.286c.001 6.583-.002 19.324.003 20.122-11.15 15.627-1.63 36.419 18.897 40.889.685 34.007 18.977 60.841 45.825 74.52v14.874l-18.99 9.09c-20.689 5.792-36.741 7.306-49.028 16.417-14.883 11.363-20.098 21.658-22.29 39.662C-.51 478.793-.095 469.022.027 476.187-.19 495.3 13.17 511.975 35.276 511.975l65.565-.001c4.143 0 7.5-3.357 7.5-7.5s-3.357-7.5-7.5-7.5H72.66l7.437-140.669a7.5 7.5 0 0 0-7.094-7.885c-4.121-.23-7.667 2.957-7.885 7.094L63.554 385.1l-38.257-4.013.125-1.114c7.721-61.141 4.946-70.405 15.265-82.675l.086-.103c12.565-14.837 32.487-15.165 47.912-19.979l23.056 29.514c5.513 7.06 15.983 7.692 22.306 1.323l3.596-3.624v36.294c0 4.143 3.357 7.5 7.5 7.5s7.5-3.357 7.5-7.5V304.43l3.595 3.623a14.896 14.896 0 0 0 22.306-1.322l10.539-13.49c-4.37 14.077-2.836 24.652-3.159 30.631-14.377 13.47-7.045 35.566 13.26 40.073 2.891 16.921 13.161 32.094 29.396 40.983v9.121c-26.458 7.126-47.266 7.419-56.682 29.856a27.966 27.966 0 0 0-.962 2.69 40.573 40.573 0 0 0-.941 3.594c-1.155 5.592-1.2 9.129-5.606 46.785h-28.548a7.499 7.499 0 0 0-7.5 7.5c0 4.143 3.357 7.5 7.5 7.5H171.175l.017.001.021-.001h169.585l.021.001.017-.001h31.743c4.143 0 7.5-3.357 7.5-7.5s-3.357-7.5-7.5-7.5H347.62c-4.072-29.911-3.685-42.762-7.081-51.976-4.514-12.313-15.5-20.547-27.401-23.555l-29.708-7.396v-9.251c15.622-8.565 26.308-23.759 29.157-40.853.103-.058 17.462-3.229 20.39-19.605.834-4.564.2-9.385-2.098-13.841 14.279-2.905 28.24-13.459 35.786-20 38.224 33.156 72.553 29.004 75.355-28.627 5.5 1.707 31.486 5.686 36.68 30.811.39 1.884.838 4.557 1.118 6.843l6.886 61.542-37.957 3.982-1.561-29.537c-.218-4.137-3.797-7.333-7.885-7.094a7.5 7.5 0 0 0-7.094 7.885l7.436 140.669h-32.066c-4.143 0-7.5 3.357-7.5 7.5s3.357 7.5 7.5 7.5l69.149.001c10.103 0 18.776-3.379 25.083-9.772 6.484-6.572 10.283-16.302 10.167-26.038.098-6.318.613 2.581-17.26-158.377zM62.301 400.051l-4.869 96.923H35.275c-13.044 0-19.962-8.537-20.25-20.93-.09-5.31.195-3.513 8.604-80.051l38.672 4.058zM228.522 147.64v-21.625c11.454 4.725 11.456 16.899 0 21.625zm-166.759.002c-11.461-4.726-11.462-16.903 0-21.629v21.629zm6.483-38.069a34.743 34.743 0 0 0-10.381 1.881c.095-7.849-.484-14.96 1.551-25.609.869-2.325 4.174-27.842 27.771-48.812h-.001c3.159-2.446 8.348-7.903 21.727-14.172 28.83-13.166 64.099-11.093 94.182 14.173 20.345 18.074 24.795 38.574 26.289 42.373 4.186 15.437 2.719 26.343 3.034 32.048a34.691 34.691 0 0 0-10.377-1.881c-1.902-1.075-3.662-2.564-5.047-4.089-10.226-11.782-1.552-20.906-12.521-30.06-7.734-6.454-15.14-3.988-28.827-2.198-63.745 6.873-76.536-8.898-89.833 2.198-3.922 3.273-6.391 8.006-6.559 13.877-.601 15.925-10.358 19.538-11.008 20.271zm8.517 53.797v-41.415c5.677-4.091 9.852-7.407 13.587-15.332 2.143-4.529 3.708-10.24 3.919-17.322.049-1.942 1.875-3.426 3.864-3.108 79.198 10.544 97.641-6.46 97.883 3.104.476 16.768 9.693 25.99 9.841 26.238 2.753 3.04 4.519 4.153 7.662 6.419.001 7.8-.002 33.88.003 34.708-.496 2.166 5.328 44.737-37.02 67.486h.001c-.106.044-11.032 6.321-26.833 7.433-3.97.26-7.878.089-7.777.091-37.108-1.731-65.13-32.507-65.13-68.302zm46.725 134.031-20.195-25.852 10.159-4.862 20.945 19.721-10.909 10.993zm21.655-21.478-22.554-21.235v-11.04c14.955 4.206 30.679 4.03 45.288-.052v10.921l-22.734 21.406zm21.655 21.478-10.908-10.993 21.065-19.835 10.136 4.852-20.293 25.976zm31.579 50.344c-6.844-3.91-6.259-10.987 0-14.546v14.546zm118.578-137.597c-23.731-26.368-18.486-50.154-18.508-89.924 8.599-1.873 23.288-6.989 36.604-20.9 10.658 12.86 42.444 44.234 100.155 46.741-.032 19.935.056 16.377-.067 20.402l-.003-.023c-.673 2.694.706 27.465-24.511 49.432l-.865.706c-23.471 18.961-56.106 19.784-79.993 4.252-1.51-.978-11.116-9.062-12.812-10.686zm-26.932 221.001.32.08c15.15 4.136 20.247 4.144 26.774 8.053 13.665 8.188 9.81 18.289 15.325 57.693h-19.963l-.888-16.188c-.227-4.137-3.763-7.311-7.899-7.077a7.499 7.499 0 0 0-7.077 7.899l.843 15.365h-82.701l.843-15.365a7.497 7.497 0 0 0-7.077-7.899 7.486 7.486 0 0 0-7.899 7.077l-.888 16.188H179.57c4.969-42.63 2.866-50.229 15.324-57.693 6.225-3.733 10.271-3.676 27.092-8.133 8.569 9.694 20.939 15.351 34.019 15.351 13.08 0 25.45-5.656 34.018-15.351zm-46.445-20.655a57.68 57.68 0 0 0 9.565 1.255c.182.009.361.015.542.02l.535.018c5.42.144 10.684-.465 14.21-1.347.371 2.882-1.645 11.264 4.626 15.809a30.317 30.317 0 0 1-34.105 0c6.253-4.532 4.27-13.001 4.627-15.755zm54.736-53.746a49.67 49.67 0 0 1-.112 1.566c-1.428 15.329-11.018 28.282-24.274 34.491-.338.042-22.952 12.144-44.723-5.413-.241-.335-13.128-9.357-15.473-27.559-.637-4.888-.229-8.79-.355-29.632 32.931 6.812 55.884-6.414 65.927-19.529 6.659 9.805 14.24 14.018 19.087 15.805-.014 32.108.046 28.041-.077 30.271zm12.531-40.086c-2.52-3.1-5.491-3.677-6.68-4.055-3.305-1.057-9.652-4.373-15.04-14.712-4.212-8.08-15.791-7.777-19.657.355-4.387 9.225-24.405 25.271-58.285 16.005-3.28-.893-6.822-.145-9.515 2.313-.251.034-.498.078-.746.118.02-4.925.059-5.114.055-5.013 1.924-45.772 56.613-69.473 91.316-38.79-.005.039.087.034.083.073 8.866 7.883 14.926 18.075 17.492 30.748 1.26 6.597.922 11.926.977 12.958zm-6.881-53.389c-3.775-3.577-6.785-5.897-10.987-8.53h35.971v2.311l-24.984 6.219zm9.428 84.483V333.2c2.672 1.528 4.938 4.176 4.938 7.278 0 3.894-2.954 5.79-4.938 7.278zm12.453-31.571c-.152-1.137.818-11.589-3.877-25.132 7.891 6.76 17.07 11.637 26.967 14.289-7.156 5.139-15.792 10.045-23.09 10.843zm-.119-42.872 9.732-2.422c.441-.11.871-.26 1.285-.447 4.376-1.984 7.203-7.03 7.203-12.855l.001-14.033c13.57 3.852 27.905 4.599 45.468.083v13.95c0 5.826 2.828 10.873 7.205 12.855a7.51 7.51 0 0 0 1.284.447l9.707 2.417c-22.006 25.749-59.832 25.803-81.885.005zm88.696 42.081c-8.692 3.626-22.392-4.519-30.12-10.107 15.924-4.415 29.466-14.076 39.197-28.024l3.658.911c-.625 20.898-5.085 34.03-12.735 37.22zm76.711 176.274c-7.952 8.059-18.746 4.348-36.469 5.306l-5.124-96.925 38.832-4.074 8.45 75.516c.632 7.458-.391 14.807-5.689 20.177z" fill="#000000" opacity="1" data-original="#000000"></path></g></svg>